# xmcd
#
# Track frame offsets:
#	150
#	11510
#	31463
#	52629
#	72798
#	91356
#	110515
#	130168
#	150749
#	172967
#	193154
#	212214
#	231686
#	251638
#	272804
#
# Disc length: 3904 seconds
#
# Revision: 0
# Processed by: cddbd v1.5.2PL0 Copyright (c) Steve Scherf et al.
# Submitted via: EasyCDDAExtractor 2010.4.0.0
#
DISCID=d10f3e0f
DTITLE=Various Artist - 성령 1집 - 나를 통하여
DYEAR=2009
DGENRE=Gospel
TTITLE0=남궁송옥 - 아버지 이름이
TTITLE1=남궁송옥 - 나를 통하여
TTITLE2=김인식 - 단심가
TTITLE3=장혁재 - Holy Sprit
TTITLE4=유은성 - 동행이인(同行二人)
TTITLE5=조수아 - 다시 태어납니다
TTITLE6=김종섭 - 보혜사
TTITLE7=이종익 - 가장 높은
TTITLE8=주리 - 바다
TTITLE9=송승현 - 당부
TTITLE10=조주영 - 하늘과 땅의 주인
TTITLE11=강보현 - 나에게 그분은
TTITLE12=이권희 - 나를 통하여 (MR)
TTITLE13=이권희 - 단심가 (MR)
TTITLE14=이권희 - Holy Sprit(MR)
EXTD=
EXTT0=
EXTT1=
EXTT2=
EXTT3=
EXTT4=
EXTT5=
EXTT6=
EXTT7=
EXTT8=
EXTT9=
EXTT10=
EXTT11=
EXTT12=
EXTT13=
EXTT14=
PLAYORDER=
